<mxfile host="app.diagrams.net" modified="2022-12-12T14:15:14.917Z" agent="5.0 (Windows NT 10.0; Win64; x64) AppleWebKit/537.36 (KHTML, like Gecko) Chrome/108.0.0.0 Safari/537.36" etag="lmKEpUOqM1bEFl6L7JNv" version="20.6.2" type="github">
  <diagram name="Page-1" id="edf60f1a-56cd-e834-aa8a-f176f3a09ee4">
    <mxGraphModel dx="1632" dy="794" grid="1" gridSize="10" guides="1" tooltips="1" connect="1" arrows="1" fold="1" page="1" pageScale="1" pageWidth="1100" pageHeight="850" background="none" math="0" shadow="0">
      <root>
        <mxCell id="0" />
        <mxCell id="1" parent="0" />
        <mxCell id="N4PRrwOJ_H3ol21oxsWe-1" value="" style="rounded=0;whiteSpace=wrap;html=1;" vertex="1" parent="1">
          <mxGeometry x="40" y="160" width="330" height="620" as="geometry" />
        </mxCell>
        <mxCell id="N4PRrwOJ_H3ol21oxsWe-3" value="" style="rounded=0;whiteSpace=wrap;html=1;" vertex="1" parent="1">
          <mxGeometry x="390" y="160" width="220" height="320" as="geometry" />
        </mxCell>
        <mxCell id="N4PRrwOJ_H3ol21oxsWe-4" value="" style="rounded=0;whiteSpace=wrap;html=1;" vertex="1" parent="1">
          <mxGeometry x="630.01" y="170" width="309.99" height="480" as="geometry" />
        </mxCell>
        <mxCell id="N4PRrwOJ_H3ol21oxsWe-13" value="Conv 32, 3x3, stride=2x2" style="rounded=0;whiteSpace=wrap;html=1;" vertex="1" parent="1">
          <mxGeometry x="165" y="200" width="175" height="20" as="geometry" />
        </mxCell>
        <mxCell id="N4PRrwOJ_H3ol21oxsWe-14" value="ReLU" style="rounded=0;whiteSpace=wrap;html=1;" vertex="1" parent="1">
          <mxGeometry x="165" y="220" width="175" height="20" as="geometry" />
        </mxCell>
        <mxCell id="N4PRrwOJ_H3ol21oxsWe-15" value="Conv 64, 3x3" style="rounded=0;whiteSpace=wrap;html=1;" vertex="1" parent="1">
          <mxGeometry x="165" y="250" width="175" height="20" as="geometry" />
        </mxCell>
        <mxCell id="N4PRrwOJ_H3ol21oxsWe-16" value="ReLU" style="rounded=0;whiteSpace=wrap;html=1;" vertex="1" parent="1">
          <mxGeometry x="165" y="270" width="175" height="20" as="geometry" />
        </mxCell>
        <mxCell id="N4PRrwOJ_H3ol21oxsWe-17" value="SeparableConv 128, 3x3" style="rounded=0;whiteSpace=wrap;html=1;" vertex="1" parent="1">
          <mxGeometry x="165" y="320" width="175" height="20" as="geometry" />
        </mxCell>
        <mxCell id="N4PRrwOJ_H3ol21oxsWe-18" value="ReLU" style="rounded=0;whiteSpace=wrap;html=1;" vertex="1" parent="1">
          <mxGeometry x="165" y="350" width="175" height="20" as="geometry" />
        </mxCell>
        <mxCell id="N4PRrwOJ_H3ol21oxsWe-19" value="SeparableConv 128, 3x3" style="rounded=0;whiteSpace=wrap;html=1;" vertex="1" parent="1">
          <mxGeometry x="165" y="370" width="175" height="20" as="geometry" />
        </mxCell>
        <mxCell id="N4PRrwOJ_H3ol21oxsWe-20" value="MaxPooling 3x3, stride=2" style="rounded=0;whiteSpace=wrap;html=1;" vertex="1" parent="1">
          <mxGeometry x="165" y="400" width="175" height="20" as="geometry" />
        </mxCell>
        <mxCell id="N4PRrwOJ_H3ol21oxsWe-21" value="ReLU" style="rounded=0;whiteSpace=wrap;html=1;" vertex="1" parent="1">
          <mxGeometry x="165" y="450" width="175" height="20" as="geometry" />
        </mxCell>
        <mxCell id="N4PRrwOJ_H3ol21oxsWe-22" value="SeparableConv 256, 3x3" style="rounded=0;whiteSpace=wrap;html=1;" vertex="1" parent="1">
          <mxGeometry x="165" y="470" width="175" height="20" as="geometry" />
        </mxCell>
        <mxCell id="N4PRrwOJ_H3ol21oxsWe-23" value="ReLU" style="rounded=0;whiteSpace=wrap;html=1;" vertex="1" parent="1">
          <mxGeometry x="165" y="500" width="175" height="20" as="geometry" />
        </mxCell>
        <mxCell id="N4PRrwOJ_H3ol21oxsWe-24" value="SeparableConv 256 3x3" style="rounded=0;whiteSpace=wrap;html=1;" vertex="1" parent="1">
          <mxGeometry x="165" y="520" width="175" height="20" as="geometry" />
        </mxCell>
        <mxCell id="N4PRrwOJ_H3ol21oxsWe-26" value="&lt;h1&gt;Entry Flow&lt;/h1&gt;" style="text;html=1;strokeColor=none;fillColor=none;spacing=5;spacingTop=-20;whiteSpace=wrap;overflow=hidden;rounded=0;" vertex="1" parent="1">
          <mxGeometry x="158.75" y="120" width="132.5" height="40" as="geometry" />
        </mxCell>
        <mxCell id="N4PRrwOJ_H3ol21oxsWe-27" value="&lt;h1&gt;Middle Flow&lt;/h1&gt;" style="text;html=1;strokeColor=none;fillColor=none;spacing=5;spacingTop=-20;whiteSpace=wrap;overflow=hidden;rounded=0;" vertex="1" parent="1">
          <mxGeometry x="423.75" y="120" width="152.5" height="40" as="geometry" />
        </mxCell>
        <mxCell id="N4PRrwOJ_H3ol21oxsWe-28" value="&lt;h1&gt;Exit Flow&lt;/h1&gt;" style="text;html=1;strokeColor=none;fillColor=none;spacing=5;spacingTop=-20;whiteSpace=wrap;overflow=hidden;rounded=0;" vertex="1" parent="1">
          <mxGeometry x="714.38" y="120" width="121.25" height="40" as="geometry" />
        </mxCell>
        <mxCell id="N4PRrwOJ_H3ol21oxsWe-30" value="MaxPooling 3x3, stride=2" style="rounded=0;whiteSpace=wrap;html=1;" vertex="1" parent="1">
          <mxGeometry x="165" y="550" width="175" height="20" as="geometry" />
        </mxCell>
        <mxCell id="N4PRrwOJ_H3ol21oxsWe-31" value="ReLU" style="rounded=0;whiteSpace=wrap;html=1;" vertex="1" parent="1">
          <mxGeometry x="165" y="610" width="175" height="20" as="geometry" />
        </mxCell>
        <mxCell id="N4PRrwOJ_H3ol21oxsWe-32" value="SeparableConv 728 3x3" style="rounded=0;whiteSpace=wrap;html=1;" vertex="1" parent="1">
          <mxGeometry x="165" y="630" width="175" height="20" as="geometry" />
        </mxCell>
        <mxCell id="N4PRrwOJ_H3ol21oxsWe-33" value="ReLU" style="rounded=0;whiteSpace=wrap;html=1;" vertex="1" parent="1">
          <mxGeometry x="165" y="660" width="175" height="20" as="geometry" />
        </mxCell>
        <mxCell id="N4PRrwOJ_H3ol21oxsWe-34" value="SeparableConv 728 3x3" style="rounded=0;whiteSpace=wrap;html=1;" vertex="1" parent="1">
          <mxGeometry x="165" y="680" width="175" height="20" as="geometry" />
        </mxCell>
        <mxCell id="N4PRrwOJ_H3ol21oxsWe-35" value="MaxPooling 3x3, stride=2" style="rounded=0;whiteSpace=wrap;html=1;" vertex="1" parent="1">
          <mxGeometry x="165" y="710" width="175" height="20" as="geometry" />
        </mxCell>
        <mxCell id="N4PRrwOJ_H3ol21oxsWe-36" value="Conv 1x1&lt;br&gt;stride=2x2" style="rounded=0;whiteSpace=wrap;html=1;" vertex="1" parent="1">
          <mxGeometry x="50" y="350" width="100" height="40" as="geometry" />
        </mxCell>
        <mxCell id="N4PRrwOJ_H3ol21oxsWe-37" value="Conv 1x1&lt;br&gt;stride=2x2" style="rounded=0;whiteSpace=wrap;html=1;" vertex="1" parent="1">
          <mxGeometry x="50" y="500" width="100" height="40" as="geometry" />
        </mxCell>
        <mxCell id="N4PRrwOJ_H3ol21oxsWe-38" value="Conv 1x1&lt;br&gt;stride=2x2" style="rounded=0;whiteSpace=wrap;html=1;" vertex="1" parent="1">
          <mxGeometry x="50" y="660" width="100" height="40" as="geometry" />
        </mxCell>
        <mxCell id="N4PRrwOJ_H3ol21oxsWe-39" value="" style="endArrow=none;html=1;rounded=0;entryX=0.5;entryY=1;entryDx=0;entryDy=0;exitX=0.5;exitY=0;exitDx=0;exitDy=0;" edge="1" parent="1" source="N4PRrwOJ_H3ol21oxsWe-15" target="N4PRrwOJ_H3ol21oxsWe-14">
          <mxGeometry width="50" height="50" relative="1" as="geometry">
            <mxPoint x="440" y="520" as="sourcePoint" />
            <mxPoint x="490" y="470" as="targetPoint" />
          </mxGeometry>
        </mxCell>
        <mxCell id="N4PRrwOJ_H3ol21oxsWe-40" value="" style="endArrow=none;html=1;rounded=0;entryX=0.5;entryY=1;entryDx=0;entryDy=0;exitX=0.5;exitY=0;exitDx=0;exitDy=0;" edge="1" parent="1" source="N4PRrwOJ_H3ol21oxsWe-17" target="N4PRrwOJ_H3ol21oxsWe-16">
          <mxGeometry width="50" height="50" relative="1" as="geometry">
            <mxPoint x="440" y="520" as="sourcePoint" />
            <mxPoint x="490" y="470" as="targetPoint" />
          </mxGeometry>
        </mxCell>
        <mxCell id="N4PRrwOJ_H3ol21oxsWe-44" value="" style="endArrow=none;html=1;rounded=0;entryX=0.5;entryY=1;entryDx=0;entryDy=0;" edge="1" parent="1" source="N4PRrwOJ_H3ol21oxsWe-37" target="N4PRrwOJ_H3ol21oxsWe-36">
          <mxGeometry width="50" height="50" relative="1" as="geometry">
            <mxPoint x="440" y="520" as="sourcePoint" />
            <mxPoint x="490" y="470" as="targetPoint" />
          </mxGeometry>
        </mxCell>
        <mxCell id="N4PRrwOJ_H3ol21oxsWe-45" value="" style="endArrow=none;html=1;rounded=0;entryX=0.5;entryY=1;entryDx=0;entryDy=0;" edge="1" parent="1" source="N4PRrwOJ_H3ol21oxsWe-38" target="N4PRrwOJ_H3ol21oxsWe-37">
          <mxGeometry width="50" height="50" relative="1" as="geometry">
            <mxPoint x="440" y="520" as="sourcePoint" />
            <mxPoint x="490" y="470" as="targetPoint" />
          </mxGeometry>
        </mxCell>
        <mxCell id="N4PRrwOJ_H3ol21oxsWe-46" value="" style="shape=orEllipse;perimeter=ellipsePerimeter;whiteSpace=wrap;html=1;backgroundOutline=1;" vertex="1" parent="1">
          <mxGeometry x="242.5" y="425" width="20" height="20" as="geometry" />
        </mxCell>
        <mxCell id="N4PRrwOJ_H3ol21oxsWe-47" value="" style="shape=orEllipse;perimeter=ellipsePerimeter;whiteSpace=wrap;html=1;backgroundOutline=1;" vertex="1" parent="1">
          <mxGeometry x="242.5" y="580" width="20" height="20" as="geometry" />
        </mxCell>
        <mxCell id="N4PRrwOJ_H3ol21oxsWe-48" value="" style="shape=orEllipse;perimeter=ellipsePerimeter;whiteSpace=wrap;html=1;backgroundOutline=1;" vertex="1" parent="1">
          <mxGeometry x="242.5" y="750" width="20" height="20" as="geometry" />
        </mxCell>
        <mxCell id="N4PRrwOJ_H3ol21oxsWe-49" value="" style="endArrow=none;html=1;rounded=0;fontFamily=Helvetica;fontSize=12;fontColor=default;entryX=0;entryY=0.5;entryDx=0;entryDy=0;" edge="1" parent="1" target="N4PRrwOJ_H3ol21oxsWe-46">
          <mxGeometry width="50" height="50" relative="1" as="geometry">
            <mxPoint x="100" y="435" as="sourcePoint" />
            <mxPoint x="490" y="470" as="targetPoint" />
          </mxGeometry>
        </mxCell>
        <mxCell id="N4PRrwOJ_H3ol21oxsWe-50" value="" style="endArrow=none;html=1;rounded=0;fontFamily=Helvetica;fontSize=12;fontColor=default;entryX=0.5;entryY=1;entryDx=0;entryDy=0;exitX=0.5;exitY=0;exitDx=0;exitDy=0;" edge="1" parent="1" source="N4PRrwOJ_H3ol21oxsWe-46" target="N4PRrwOJ_H3ol21oxsWe-20">
          <mxGeometry width="50" height="50" relative="1" as="geometry">
            <mxPoint x="440" y="520" as="sourcePoint" />
            <mxPoint x="490" y="470" as="targetPoint" />
          </mxGeometry>
        </mxCell>
        <mxCell id="N4PRrwOJ_H3ol21oxsWe-51" value="" style="endArrow=none;html=1;rounded=0;fontFamily=Helvetica;fontSize=12;fontColor=default;entryX=0.5;entryY=1;entryDx=0;entryDy=0;exitX=0.5;exitY=0;exitDx=0;exitDy=0;" edge="1" parent="1" source="N4PRrwOJ_H3ol21oxsWe-21" target="N4PRrwOJ_H3ol21oxsWe-46">
          <mxGeometry width="50" height="50" relative="1" as="geometry">
            <mxPoint x="440" y="520" as="sourcePoint" />
            <mxPoint x="490" y="470" as="targetPoint" />
          </mxGeometry>
        </mxCell>
        <mxCell id="N4PRrwOJ_H3ol21oxsWe-52" value="" style="endArrow=none;html=1;rounded=0;fontFamily=Helvetica;fontSize=12;fontColor=default;entryX=0.5;entryY=1;entryDx=0;entryDy=0;exitX=0.5;exitY=0;exitDx=0;exitDy=0;" edge="1" parent="1" source="N4PRrwOJ_H3ol21oxsWe-18" target="N4PRrwOJ_H3ol21oxsWe-17">
          <mxGeometry width="50" height="50" relative="1" as="geometry">
            <mxPoint x="440" y="520" as="sourcePoint" />
            <mxPoint x="490" y="470" as="targetPoint" />
          </mxGeometry>
        </mxCell>
        <mxCell id="N4PRrwOJ_H3ol21oxsWe-53" value="" style="endArrow=none;html=1;rounded=0;fontFamily=Helvetica;fontSize=12;fontColor=default;entryX=0.5;entryY=1;entryDx=0;entryDy=0;exitX=0.5;exitY=0;exitDx=0;exitDy=0;" edge="1" parent="1" source="N4PRrwOJ_H3ol21oxsWe-20" target="N4PRrwOJ_H3ol21oxsWe-19">
          <mxGeometry width="50" height="50" relative="1" as="geometry">
            <mxPoint x="440" y="520" as="sourcePoint" />
            <mxPoint x="490" y="470" as="targetPoint" />
          </mxGeometry>
        </mxCell>
        <mxCell id="N4PRrwOJ_H3ol21oxsWe-54" value="" style="endArrow=none;html=1;rounded=0;fontFamily=Helvetica;fontSize=12;fontColor=default;entryX=0.5;entryY=1;entryDx=0;entryDy=0;exitX=0.5;exitY=0;exitDx=0;exitDy=0;" edge="1" parent="1" source="N4PRrwOJ_H3ol21oxsWe-23" target="N4PRrwOJ_H3ol21oxsWe-22">
          <mxGeometry width="50" height="50" relative="1" as="geometry">
            <mxPoint x="440" y="520" as="sourcePoint" />
            <mxPoint x="490" y="470" as="targetPoint" />
          </mxGeometry>
        </mxCell>
        <mxCell id="N4PRrwOJ_H3ol21oxsWe-55" value="" style="endArrow=none;html=1;rounded=0;fontFamily=Helvetica;fontSize=12;fontColor=default;entryX=0.5;entryY=1;entryDx=0;entryDy=0;exitX=0.5;exitY=0;exitDx=0;exitDy=0;" edge="1" parent="1" source="N4PRrwOJ_H3ol21oxsWe-30" target="N4PRrwOJ_H3ol21oxsWe-24">
          <mxGeometry width="50" height="50" relative="1" as="geometry">
            <mxPoint x="440" y="520" as="sourcePoint" />
            <mxPoint x="490" y="470" as="targetPoint" />
          </mxGeometry>
        </mxCell>
        <mxCell id="N4PRrwOJ_H3ol21oxsWe-56" value="" style="endArrow=none;html=1;rounded=0;fontFamily=Helvetica;fontSize=12;fontColor=default;entryX=0.5;entryY=1;entryDx=0;entryDy=0;exitX=0.5;exitY=0;exitDx=0;exitDy=0;" edge="1" parent="1" source="N4PRrwOJ_H3ol21oxsWe-47" target="N4PRrwOJ_H3ol21oxsWe-30">
          <mxGeometry width="50" height="50" relative="1" as="geometry">
            <mxPoint x="440" y="520" as="sourcePoint" />
            <mxPoint x="490" y="470" as="targetPoint" />
          </mxGeometry>
        </mxCell>
        <mxCell id="N4PRrwOJ_H3ol21oxsWe-57" value="" style="endArrow=none;html=1;rounded=0;fontFamily=Helvetica;fontSize=12;fontColor=default;entryX=0.5;entryY=1;entryDx=0;entryDy=0;exitX=0.5;exitY=0;exitDx=0;exitDy=0;" edge="1" parent="1" source="N4PRrwOJ_H3ol21oxsWe-31" target="N4PRrwOJ_H3ol21oxsWe-47">
          <mxGeometry width="50" height="50" relative="1" as="geometry">
            <mxPoint x="440" y="520" as="sourcePoint" />
            <mxPoint x="490" y="470" as="targetPoint" />
          </mxGeometry>
        </mxCell>
        <mxCell id="N4PRrwOJ_H3ol21oxsWe-58" value="" style="endArrow=none;html=1;rounded=0;fontFamily=Helvetica;fontSize=12;fontColor=default;entryX=0.5;entryY=1;entryDx=0;entryDy=0;exitX=0.5;exitY=0;exitDx=0;exitDy=0;" edge="1" parent="1" source="N4PRrwOJ_H3ol21oxsWe-33" target="N4PRrwOJ_H3ol21oxsWe-32">
          <mxGeometry width="50" height="50" relative="1" as="geometry">
            <mxPoint x="440" y="520" as="sourcePoint" />
            <mxPoint x="490" y="470" as="targetPoint" />
          </mxGeometry>
        </mxCell>
        <mxCell id="N4PRrwOJ_H3ol21oxsWe-59" value="" style="endArrow=none;html=1;rounded=0;fontFamily=Helvetica;fontSize=12;fontColor=default;entryX=0.5;entryY=1;entryDx=0;entryDy=0;exitX=0.5;exitY=0;exitDx=0;exitDy=0;" edge="1" parent="1" source="N4PRrwOJ_H3ol21oxsWe-35" target="N4PRrwOJ_H3ol21oxsWe-34">
          <mxGeometry width="50" height="50" relative="1" as="geometry">
            <mxPoint x="440" y="520" as="sourcePoint" />
            <mxPoint x="490" y="470" as="targetPoint" />
          </mxGeometry>
        </mxCell>
        <mxCell id="N4PRrwOJ_H3ol21oxsWe-60" value="" style="endArrow=none;html=1;rounded=0;fontFamily=Helvetica;fontSize=12;fontColor=default;exitX=0.5;exitY=1;exitDx=0;exitDy=0;entryX=0.5;entryY=0;entryDx=0;entryDy=0;" edge="1" parent="1" source="N4PRrwOJ_H3ol21oxsWe-35" target="N4PRrwOJ_H3ol21oxsWe-48">
          <mxGeometry width="50" height="50" relative="1" as="geometry">
            <mxPoint x="440" y="520" as="sourcePoint" />
            <mxPoint x="490" y="470" as="targetPoint" />
          </mxGeometry>
        </mxCell>
        <mxCell id="N4PRrwOJ_H3ol21oxsWe-61" value="" style="endArrow=none;html=1;rounded=0;fontFamily=Helvetica;fontSize=12;fontColor=default;entryX=0;entryY=0.5;entryDx=0;entryDy=0;" edge="1" parent="1" target="N4PRrwOJ_H3ol21oxsWe-47">
          <mxGeometry width="50" height="50" relative="1" as="geometry">
            <mxPoint x="100" y="590" as="sourcePoint" />
            <mxPoint x="490" y="470" as="targetPoint" />
          </mxGeometry>
        </mxCell>
        <mxCell id="N4PRrwOJ_H3ol21oxsWe-66" value="" style="shape=partialRectangle;whiteSpace=wrap;html=1;bottom=0;right=0;fillColor=none;strokeColor=default;fontFamily=Helvetica;fontSize=12;fontColor=default;rotation=-90;" vertex="1" parent="1">
          <mxGeometry x="144.38" y="654.38" width="58.75" height="150" as="geometry" />
        </mxCell>
        <mxCell id="N4PRrwOJ_H3ol21oxsWe-67" value="" style="shape=partialRectangle;whiteSpace=wrap;html=1;bottom=0;right=0;fillColor=none;strokeColor=default;fontFamily=Helvetica;fontSize=12;fontColor=default;rotation=-180;" vertex="1" parent="1">
          <mxGeometry x="50" y="300" width="53.75" height="50" as="geometry" />
        </mxCell>
        <mxCell id="N4PRrwOJ_H3ol21oxsWe-68" value="" style="endArrow=none;html=1;rounded=0;fontFamily=Helvetica;fontSize=12;fontColor=default;entryX=0;entryY=1;entryDx=0;entryDy=0;" edge="1" parent="1" target="N4PRrwOJ_H3ol21oxsWe-67">
          <mxGeometry width="50" height="50" relative="1" as="geometry">
            <mxPoint x="250" y="300" as="sourcePoint" />
            <mxPoint x="490" y="470" as="targetPoint" />
          </mxGeometry>
        </mxCell>
        <mxCell id="N4PRrwOJ_H3ol21oxsWe-69" value="ReLU" style="rounded=0;whiteSpace=wrap;html=1;" vertex="1" parent="1">
          <mxGeometry x="423.75" y="200" width="175" height="20" as="geometry" />
        </mxCell>
        <mxCell id="N4PRrwOJ_H3ol21oxsWe-70" value="SeparableConv 728 3x3" style="rounded=0;whiteSpace=wrap;html=1;" vertex="1" parent="1">
          <mxGeometry x="423.75" y="220" width="175" height="20" as="geometry" />
        </mxCell>
        <mxCell id="N4PRrwOJ_H3ol21oxsWe-71" value="ReLU" style="rounded=0;whiteSpace=wrap;html=1;" vertex="1" parent="1">
          <mxGeometry x="423.75" y="260" width="175" height="20" as="geometry" />
        </mxCell>
        <mxCell id="N4PRrwOJ_H3ol21oxsWe-72" value="SeparableConv 728 3x3" style="rounded=0;whiteSpace=wrap;html=1;" vertex="1" parent="1">
          <mxGeometry x="423.75" y="280" width="175" height="20" as="geometry" />
        </mxCell>
        <mxCell id="N4PRrwOJ_H3ol21oxsWe-73" value="ReLU" style="rounded=0;whiteSpace=wrap;html=1;" vertex="1" parent="1">
          <mxGeometry x="423.75" y="320" width="175" height="20" as="geometry" />
        </mxCell>
        <mxCell id="N4PRrwOJ_H3ol21oxsWe-74" value="SeparableConv 728 3x3" style="rounded=0;whiteSpace=wrap;html=1;" vertex="1" parent="1">
          <mxGeometry x="423.75" y="340" width="175" height="20" as="geometry" />
        </mxCell>
        <mxCell id="N4PRrwOJ_H3ol21oxsWe-75" value="" style="shape=orEllipse;perimeter=ellipsePerimeter;whiteSpace=wrap;html=1;backgroundOutline=1;" vertex="1" parent="1">
          <mxGeometry x="501.25" y="390" width="20" height="20" as="geometry" />
        </mxCell>
        <mxCell id="N4PRrwOJ_H3ol21oxsWe-76" value="" style="endArrow=none;html=1;rounded=0;fontFamily=Helvetica;fontSize=12;fontColor=default;entryX=0.5;entryY=1;entryDx=0;entryDy=0;exitX=0.5;exitY=0;exitDx=0;exitDy=0;" edge="1" parent="1" source="N4PRrwOJ_H3ol21oxsWe-71" target="N4PRrwOJ_H3ol21oxsWe-70">
          <mxGeometry width="50" height="50" relative="1" as="geometry">
            <mxPoint x="710" y="490" as="sourcePoint" />
            <mxPoint x="760" y="440" as="targetPoint" />
          </mxGeometry>
        </mxCell>
        <mxCell id="N4PRrwOJ_H3ol21oxsWe-77" value="" style="endArrow=none;html=1;rounded=0;fontFamily=Helvetica;fontSize=12;fontColor=default;entryX=0.5;entryY=1;entryDx=0;entryDy=0;" edge="1" parent="1" source="N4PRrwOJ_H3ol21oxsWe-73" target="N4PRrwOJ_H3ol21oxsWe-72">
          <mxGeometry width="50" height="50" relative="1" as="geometry">
            <mxPoint x="710" y="490" as="sourcePoint" />
            <mxPoint x="760" y="440" as="targetPoint" />
          </mxGeometry>
        </mxCell>
        <mxCell id="N4PRrwOJ_H3ol21oxsWe-78" value="" style="endArrow=none;html=1;rounded=0;fontFamily=Helvetica;fontSize=12;fontColor=default;entryX=0.5;entryY=1;entryDx=0;entryDy=0;exitX=0.5;exitY=0;exitDx=0;exitDy=0;" edge="1" parent="1" source="N4PRrwOJ_H3ol21oxsWe-75" target="N4PRrwOJ_H3ol21oxsWe-74">
          <mxGeometry width="50" height="50" relative="1" as="geometry">
            <mxPoint x="710" y="490" as="sourcePoint" />
            <mxPoint x="760" y="440" as="targetPoint" />
          </mxGeometry>
        </mxCell>
        <mxCell id="N4PRrwOJ_H3ol21oxsWe-80" value="ReLU" style="rounded=0;whiteSpace=wrap;html=1;" vertex="1" parent="1">
          <mxGeometry x="750" y="200" width="175" height="20" as="geometry" />
        </mxCell>
        <mxCell id="N4PRrwOJ_H3ol21oxsWe-81" value="SeparableConv 728 3x3" style="rounded=0;whiteSpace=wrap;html=1;" vertex="1" parent="1">
          <mxGeometry x="750" y="220" width="175" height="20" as="geometry" />
        </mxCell>
        <mxCell id="N4PRrwOJ_H3ol21oxsWe-82" value="ReLU" style="rounded=0;whiteSpace=wrap;html=1;" vertex="1" parent="1">
          <mxGeometry x="750" y="250" width="175" height="20" as="geometry" />
        </mxCell>
        <mxCell id="N4PRrwOJ_H3ol21oxsWe-83" value="SeparableConv 728 3x3" style="rounded=0;whiteSpace=wrap;html=1;" vertex="1" parent="1">
          <mxGeometry x="750" y="270" width="175" height="20" as="geometry" />
        </mxCell>
        <mxCell id="N4PRrwOJ_H3ol21oxsWe-84" value="MaxPooling 3x3, stride=2" style="rounded=0;whiteSpace=wrap;html=1;" vertex="1" parent="1">
          <mxGeometry x="750" y="300" width="175" height="20" as="geometry" />
        </mxCell>
        <mxCell id="N4PRrwOJ_H3ol21oxsWe-85" value="SeparableConv 728 3x3" style="rounded=0;whiteSpace=wrap;html=1;" vertex="1" parent="1">
          <mxGeometry x="750" y="370" width="175" height="20" as="geometry" />
        </mxCell>
        <mxCell id="N4PRrwOJ_H3ol21oxsWe-87" value="ReLU" style="rounded=0;whiteSpace=wrap;html=1;" vertex="1" parent="1">
          <mxGeometry x="750" y="390" width="175" height="20" as="geometry" />
        </mxCell>
        <mxCell id="N4PRrwOJ_H3ol21oxsWe-88" value="SeparableConv 728 3x3" style="rounded=0;whiteSpace=wrap;html=1;" vertex="1" parent="1">
          <mxGeometry x="750" y="420" width="175" height="20" as="geometry" />
        </mxCell>
        <mxCell id="N4PRrwOJ_H3ol21oxsWe-89" value="ReLU" style="rounded=0;whiteSpace=wrap;html=1;" vertex="1" parent="1">
          <mxGeometry x="750" y="440" width="175" height="20" as="geometry" />
        </mxCell>
        <mxCell id="N4PRrwOJ_H3ol21oxsWe-90" value="MaxPooling 3x3, stride=2" style="rounded=0;whiteSpace=wrap;html=1;" vertex="1" parent="1">
          <mxGeometry x="750" y="480" width="175" height="20" as="geometry" />
        </mxCell>
        <mxCell id="N4PRrwOJ_H3ol21oxsWe-91" value="" style="endArrow=none;html=1;rounded=0;fontFamily=Helvetica;fontSize=12;fontColor=default;entryX=0.5;entryY=1;entryDx=0;entryDy=0;exitX=0.5;exitY=0;exitDx=0;exitDy=0;" edge="1" parent="1" source="N4PRrwOJ_H3ol21oxsWe-82" target="N4PRrwOJ_H3ol21oxsWe-81">
          <mxGeometry width="50" height="50" relative="1" as="geometry">
            <mxPoint x="710" y="490" as="sourcePoint" />
            <mxPoint x="760" y="440" as="targetPoint" />
          </mxGeometry>
        </mxCell>
        <mxCell id="N4PRrwOJ_H3ol21oxsWe-92" value="" style="endArrow=none;html=1;rounded=0;fontFamily=Helvetica;fontSize=12;fontColor=default;entryX=0.5;entryY=1;entryDx=0;entryDy=0;exitX=0.5;exitY=0;exitDx=0;exitDy=0;" edge="1" parent="1" source="N4PRrwOJ_H3ol21oxsWe-84" target="N4PRrwOJ_H3ol21oxsWe-83">
          <mxGeometry width="50" height="50" relative="1" as="geometry">
            <mxPoint x="710" y="490" as="sourcePoint" />
            <mxPoint x="760" y="440" as="targetPoint" />
          </mxGeometry>
        </mxCell>
        <mxCell id="N4PRrwOJ_H3ol21oxsWe-93" value="" style="endArrow=none;html=1;rounded=0;fontFamily=Helvetica;fontSize=12;fontColor=default;entryX=0.5;entryY=1;entryDx=0;entryDy=0;exitX=0.5;exitY=0;exitDx=0;exitDy=0;" edge="1" parent="1" source="N4PRrwOJ_H3ol21oxsWe-94" target="N4PRrwOJ_H3ol21oxsWe-84">
          <mxGeometry width="50" height="50" relative="1" as="geometry">
            <mxPoint x="710" y="490" as="sourcePoint" />
            <mxPoint x="760" y="440" as="targetPoint" />
          </mxGeometry>
        </mxCell>
        <mxCell id="N4PRrwOJ_H3ol21oxsWe-94" value="" style="shape=orEllipse;perimeter=ellipsePerimeter;whiteSpace=wrap;html=1;backgroundOutline=1;" vertex="1" parent="1">
          <mxGeometry x="827.5" y="340" width="20" height="20" as="geometry" />
        </mxCell>
        <mxCell id="N4PRrwOJ_H3ol21oxsWe-101" value="" style="endArrow=none;html=1;rounded=0;fontFamily=Helvetica;fontSize=12;fontColor=default;entryX=0.5;entryY=1;entryDx=0;entryDy=0;exitX=0.5;exitY=0;exitDx=0;exitDy=0;" edge="1" parent="1" source="N4PRrwOJ_H3ol21oxsWe-85" target="N4PRrwOJ_H3ol21oxsWe-94">
          <mxGeometry width="50" height="50" relative="1" as="geometry">
            <mxPoint x="710" y="490" as="sourcePoint" />
            <mxPoint x="760" y="440" as="targetPoint" />
          </mxGeometry>
        </mxCell>
        <mxCell id="N4PRrwOJ_H3ol21oxsWe-102" value="" style="endArrow=none;html=1;rounded=0;fontFamily=Helvetica;fontSize=12;fontColor=default;entryX=0.5;entryY=1;entryDx=0;entryDy=0;exitX=0.5;exitY=0;exitDx=0;exitDy=0;" edge="1" parent="1" source="N4PRrwOJ_H3ol21oxsWe-88" target="N4PRrwOJ_H3ol21oxsWe-87">
          <mxGeometry width="50" height="50" relative="1" as="geometry">
            <mxPoint x="710" y="490" as="sourcePoint" />
            <mxPoint x="760" y="440" as="targetPoint" />
          </mxGeometry>
        </mxCell>
        <mxCell id="N4PRrwOJ_H3ol21oxsWe-103" value="" style="endArrow=none;html=1;rounded=0;fontFamily=Helvetica;fontSize=12;fontColor=default;entryX=0.5;entryY=1;entryDx=0;entryDy=0;exitX=0.5;exitY=0;exitDx=0;exitDy=0;" edge="1" parent="1" source="N4PRrwOJ_H3ol21oxsWe-90" target="N4PRrwOJ_H3ol21oxsWe-89">
          <mxGeometry width="50" height="50" relative="1" as="geometry">
            <mxPoint x="710" y="490" as="sourcePoint" />
            <mxPoint x="760" y="440" as="targetPoint" />
          </mxGeometry>
        </mxCell>
        <mxCell id="N4PRrwOJ_H3ol21oxsWe-104" value="" style="shape=partialRectangle;whiteSpace=wrap;html=1;bottom=0;right=0;fillColor=none;strokeColor=default;fontFamily=Helvetica;fontSize=12;fontColor=default;" vertex="1" parent="1">
          <mxGeometry x="400" y="190" width="110" height="90" as="geometry" />
        </mxCell>
        <mxCell id="N4PRrwOJ_H3ol21oxsWe-105" value="" style="shape=partialRectangle;whiteSpace=wrap;html=1;bottom=0;right=0;fillColor=none;strokeColor=default;fontFamily=Helvetica;fontSize=12;fontColor=default;rotation=-90;" vertex="1" parent="1">
          <mxGeometry x="390" y="290" width="120" height="100" as="geometry" />
        </mxCell>
        <mxCell id="N4PRrwOJ_H3ol21oxsWe-107" value="" style="endArrow=none;html=1;rounded=0;fontFamily=Helvetica;fontSize=12;fontColor=default;exitX=1;exitY=0.25;exitDx=0;exitDy=0;entryX=1;entryY=0;entryDx=0;entryDy=0;" edge="1" parent="1" source="N4PRrwOJ_H3ol21oxsWe-104" target="N4PRrwOJ_H3ol21oxsWe-104">
          <mxGeometry width="50" height="50" relative="1" as="geometry">
            <mxPoint x="710" y="490" as="sourcePoint" />
            <mxPoint x="760" y="440" as="targetPoint" />
          </mxGeometry>
        </mxCell>
        <mxCell id="N4PRrwOJ_H3ol21oxsWe-108" value="Conv 1x1&lt;br&gt;stride=2x2" style="rounded=0;whiteSpace=wrap;html=1;" vertex="1" parent="1">
          <mxGeometry x="640" y="270" width="100" height="40" as="geometry" />
        </mxCell>
        <mxCell id="N4PRrwOJ_H3ol21oxsWe-110" value="" style="shape=partialRectangle;whiteSpace=wrap;html=1;bottom=0;right=0;fillColor=none;strokeColor=default;fontFamily=Helvetica;fontSize=12;fontColor=default;" vertex="1" parent="1">
          <mxGeometry x="690" y="190" width="145.63" height="80" as="geometry" />
        </mxCell>
        <mxCell id="N4PRrwOJ_H3ol21oxsWe-113" value="" style="shape=partialRectangle;whiteSpace=wrap;html=1;bottom=0;right=0;fillColor=none;strokeColor=default;fontFamily=Helvetica;fontSize=12;fontColor=default;rotation=-90;" vertex="1" parent="1">
          <mxGeometry x="737.5" y="257.5" width="40.63" height="140" as="geometry" />
        </mxCell>
        <mxCell id="N4PRrwOJ_H3ol21oxsWe-114" value="2048-dimensional vectors" style="text;html=1;strokeColor=none;fillColor=none;align=center;verticalAlign=middle;whiteSpace=wrap;rounded=0;fontFamily=Helvetica;fontSize=12;fontColor=default;" vertex="1" parent="1">
          <mxGeometry x="747.5" y="520" width="180" height="30" as="geometry" />
        </mxCell>
        <mxCell id="N4PRrwOJ_H3ol21oxsWe-115" value="Optional fully-connected&lt;br&gt;layer(s)" style="text;html=1;strokeColor=none;fillColor=none;align=center;verticalAlign=middle;whiteSpace=wrap;rounded=0;fontFamily=Helvetica;fontSize=12;fontColor=default;" vertex="1" parent="1">
          <mxGeometry x="747.5" y="570" width="180" height="30" as="geometry" />
        </mxCell>
        <mxCell id="N4PRrwOJ_H3ol21oxsWe-116" value="Logistic regression" style="text;html=1;strokeColor=none;fillColor=none;align=center;verticalAlign=middle;whiteSpace=wrap;rounded=0;fontFamily=Helvetica;fontSize=12;fontColor=default;" vertex="1" parent="1">
          <mxGeometry x="747.5" y="620" width="180" height="30" as="geometry" />
        </mxCell>
        <mxCell id="N4PRrwOJ_H3ol21oxsWe-117" value="" style="endArrow=none;html=1;rounded=0;fontFamily=Helvetica;fontSize=12;fontColor=default;entryX=0.5;entryY=1;entryDx=0;entryDy=0;exitX=0.5;exitY=0;exitDx=0;exitDy=0;" edge="1" parent="1" source="N4PRrwOJ_H3ol21oxsWe-114" target="N4PRrwOJ_H3ol21oxsWe-90">
          <mxGeometry width="50" height="50" relative="1" as="geometry">
            <mxPoint x="710" y="460" as="sourcePoint" />
            <mxPoint x="760" y="410" as="targetPoint" />
          </mxGeometry>
        </mxCell>
        <mxCell id="N4PRrwOJ_H3ol21oxsWe-118" value="" style="endArrow=none;html=1;rounded=0;fontFamily=Helvetica;fontSize=12;fontColor=default;entryX=0.5;entryY=1;entryDx=0;entryDy=0;exitX=0.5;exitY=0;exitDx=0;exitDy=0;" edge="1" parent="1" source="N4PRrwOJ_H3ol21oxsWe-115" target="N4PRrwOJ_H3ol21oxsWe-114">
          <mxGeometry width="50" height="50" relative="1" as="geometry">
            <mxPoint x="710" y="460" as="sourcePoint" />
            <mxPoint x="760" y="410" as="targetPoint" />
          </mxGeometry>
        </mxCell>
        <mxCell id="N4PRrwOJ_H3ol21oxsWe-119" value="" style="endArrow=none;html=1;rounded=0;fontFamily=Helvetica;fontSize=12;fontColor=default;entryX=0.5;entryY=1;entryDx=0;entryDy=0;exitX=0.5;exitY=0;exitDx=0;exitDy=0;" edge="1" parent="1" source="N4PRrwOJ_H3ol21oxsWe-116" target="N4PRrwOJ_H3ol21oxsWe-115">
          <mxGeometry width="50" height="50" relative="1" as="geometry">
            <mxPoint x="710" y="460" as="sourcePoint" />
            <mxPoint x="760" y="410" as="targetPoint" />
          </mxGeometry>
        </mxCell>
        <mxCell id="N4PRrwOJ_H3ol21oxsWe-120" value="299x299x3 images" style="text;html=1;strokeColor=none;fillColor=none;align=center;verticalAlign=middle;whiteSpace=wrap;rounded=0;fontFamily=Helvetica;fontSize=12;fontColor=default;" vertex="1" parent="1">
          <mxGeometry x="162.5" y="160" width="180" height="30" as="geometry" />
        </mxCell>
        <mxCell id="N4PRrwOJ_H3ol21oxsWe-121" value="19x19x728 feature maps" style="text;html=1;strokeColor=none;fillColor=none;align=center;verticalAlign=middle;whiteSpace=wrap;rounded=0;fontFamily=Helvetica;fontSize=12;fontColor=default;" vertex="1" parent="1">
          <mxGeometry x="418.75" y="160" width="180" height="30" as="geometry" />
        </mxCell>
        <mxCell id="N4PRrwOJ_H3ol21oxsWe-122" value="19x19x728 feature maps" style="text;html=1;strokeColor=none;fillColor=none;align=center;verticalAlign=middle;whiteSpace=wrap;rounded=0;fontFamily=Helvetica;fontSize=12;fontColor=default;" vertex="1" parent="1">
          <mxGeometry x="730" y="170" width="180" height="30" as="geometry" />
        </mxCell>
      </root>
    </mxGraphModel>
  </diagram>
</mxfile>
